<?xml version="1.0" standalone="no"?>
<!DOCTYPE svg PUBLIC "-//W3C//DTD SVG 20010904//EN"
 "http://www.w3.org/TR/2001/REC-SVG-20010904/DTD/svg10.dtd">
<svg version="1.0" xmlns="http://www.w3.org/2000/svg" 
 width="512.000000pt" height="512.000000pt" viewBox="0 0 512.000000 512.000000"
 preserveAspectRatio="xMidYMid meet">
<metadata>
Created by potrace 1.15, written by Peter Selinger 2001-2017
</metadata>
<g transform="translate(0.000000,512.000000) scale(0.100000,-0.100000)"
fill="#000000" stroke="none">
<path d="M2235 5104 c-591 -80 -1100 -334 -1510 -755 -192 -197 -330 -388
-448 -621 -192 -376 -277 -737 -277 -1168 0 -431 85 -792 277 -1168 118 -233
256 -424 448 -621 413 -424 923 -678 1518 -756 156 -20 478 -20 634 0 595 78
1105 332 1518 756 192 197 330 388 448 621 192 376 277 737 277 1168 0 431
-85 792 -277 1168 -118 233 -256 424 -448 621 -413 424 -923 678 -1518 756
-146 19 -500 19 -642 -1z m1710 -1669 c195 -51 325 -176 325 -312 0 -65 -17
-108 -59 -148 -28 -25 -41 -30 -99 -33 -54 -2 -73 1 -99 17 -83 52 -96 191
-24 255 l21 19 -21 23 c-37 39 -112 58 -229 58 -126 0 -187 -22 -249 -89 -111
-121 -68 -290 108 -423 36 -28 122 -83 191 -123 278 -161 393 -260 457 -395
36 -75 38 -84 38 -179 0 -91 -3 -106 -32 -167 -96 -205 -327 -303 -649 -277
-307 24 -517 203 -465 397 34 125 202 171 288 78 63 -68 66 -155 8 -224 l-25
-30 40 -26 c57 -37 140 -56 250 -56 137 0 192 18 257 85 77 79 94 166 49 260
-35 76 -121 148 -291 244 -312 178 -424 269 -490 404 -78 159 -60 345 47 478
64 80 204 156 330 179 72 12 249 4 323 -15z m-2538 -97 c22 -57 138 -361 259
-676 141 -370 222 -569 227 -560 5 7 118 310 251 673 l242 660 272 3 272 2 0
-64 0 -65 -47 -6 c-78 -10 -88 -13 -116 -39 l-27 -25 0 -683 c0 -760 -4 -718
68 -738 20 -5 56 -10 80 -10 l42 0 0 -65 0 -65 -325 0 -326 0 3 63 3 62 62 6
c69 7 110 28 118 62 3 12 4 306 3 653 l-3 632 -266 -737 -265 -736 -68 0 -68
0 -294 739 c-161 406 -296 741 -299 744 -8 8 -4 -1269 4 -1298 9 -33 53 -53
129 -58 l62 -4 0 -64 0 -64 -290 0 -290 0 0 65 0 65 45 0 c56 0 107 20 129 51
14 21 16 90 16 694 0 368 -3 679 -6 691 -6 23 -62 54 -98 54 -13 0 -38 3 -55
6 -31 6 -31 7 -31 70 l0 64 274 0 274 0 39 -102z"/>
</g>
</svg>
