<svg xmlns="http://www.w3.org/2000/svg" viewBox="0 0 128.07 125.11"><defs><style>.cls-1,.cls-6{fill:#fff;}.cls-1{stroke:#afafaf;stroke-width:1.35px;}.cls-1,.cls-3{stroke-miterlimit:10;}.cls-2{fill:#494d4d;}.cls-3{fill:none;stroke:#494d4d;stroke-linecap:round;stroke-width:2.88px;}.cls-4{fill:#8c0506;}.cls-5{fill:#e60000;}.cls-7{fill:#e30e18;}</style></defs><title>Datový zdroj 1</title><g id="Vrstva_2" data-name="Vrstva 2"><g id="Vrstva_1-2" data-name="Vrstva 1"><rect class="cls-1" x="14.83" y="13.9" width="97.06" height="110.54" rx="47.08" ry="47.08"/><circle class="cls-2" cx="44.49" cy="75.91" r="8.09"/><circle class="cls-2" cx="82.23" cy="75.91" r="8.09"/><path class="cls-3" d="M39.09,100.17S46.37,111,63.36,111s24.26-10.78,24.26-10.78"/><path class="cls-4" d="M128.07,73.54V58.09C126,25.76,98.15,0,64.05,0H62C27.9,0,0,26.46,0,58.79V75.25s2.75,10.56,16.52,13.2V56.1a4.52,4.52,0,0,1,6.53-3.88c8.34,3.91,23.7,9.83,40.29,9.83,15.58,0,30.06-5.21,38.68-9.09a5.68,5.68,0,0,1,8.14,4.93V88.46s15.15-4,17.9-14.52Z"/><path class="cls-5" d="M128.07,70.85V58.09C126,25.76,98.15,0,64.05,0H62C27.9,0,0,26.46,0,58.79V72.56s2.75,10.56,16.52,13.2V56.1a4.52,4.52,0,0,1,6.53-3.88c8.34,3.91,23.7,9.83,40.29,9.83,15.58,0,30.06-5.21,38.68-9.09a5.68,5.68,0,0,1,8.14,4.93V85.76s15.15-4,17.9-14.52Z"/><g id="_Skupina_" data-name="&lt;Skupina&gt;"><circle id="_Cesta_" data-name="&lt;Cesta&gt;" class="cls-6" cx="63.62" cy="32.24" r="24.44" transform="translate(31.24 95.79) rotate(-89.87)"/><path id="_Cesta_2" data-name="&lt;Cesta&gt;" class="cls-7" d="M63.79,45.87c-6.72,0-13.69-5.74-13.7-14.94a20.74,20.74,0,0,1,7.49-15.4A24.41,24.41,0,0,1,72.38,10a6.16,6.16,0,0,1,1.76.2,10.15,10.15,0,0,0-8,9.74,2.55,2.55,0,0,0,0,.4C73.62,22.14,77,26.64,77,32.85A13.08,13.08,0,0,1,63.79,45.87Z"/></g></g></g></svg>